# xmcd
#
# Track frame offsets: 
#        150
#        10922
#        24335
#        47963
#        65628
#        101474
#        124823
#        163512
#        177938
#        200852
#        219176
#        235093
#        263848
#
# Disc length: 3888 seconds
#
# Revision: 0
# Processed by: cddbd v1.5.1PL0 Copyright (c) Steve Scherf et al.
# Submitted via: ExactAudioCopy v0.95a3
#
DISCID=b10f2e0d
DTITLE=Cuby and The Blizzards - Live @ Zuidbrock (2002-10-27)
DYEAR=2002
DGENRE=Blues
TTITLE0=Introduction
TTITLE1=Another Day
TTITLE2=Distant Smile
TTITLE3=Another Land
TTITLE4=Travelling With The Blues
TTITLE5=Help Me, Mister
TTITLE6=Too Blind Too See
TTITLE7=Window Of My Eyes
TTITLE8=Dancing Bears
TTITLE9=Blijf Bij Mij
TTITLE10=Just For Fun
TTITLE11=Applenockers Flophouse
TTITLE12=Dust My Blues
EXTD=
EXTT0=
EXTT1=
EXTT2=
EXTT3=
EXTT4=
EXTT5=
EXTT6=
EXTT7=
EXTT8=
EXTT9=
EXTT10=
EXTT11=
EXTT12=
PLAYORDER=
